<?xml version="1.0" encoding="utf-8"?>
<svg version="1.0" xmlns="http://www.w3.org/2000/svg" width="934.000000pt" height="267.000000pt" viewBox="0 0 934.000000 267.000000" preserveAspectRatio="xMidYMid meet">
  <g transform="translate(0.000000,267.000000) scale(0.100000,-0.100000)" fill="#000000" stroke="none">
    <path d="M2314 2308 c7 -18 37 -89 66 -158 29 -69 54 -127 56 -129 2 -2 8 18 15 43 6 26 16 45 22 43 19 -6 35 -71 36 -143 5 -463 -695 -1249 -1269 -1425 -98 -30 -268 -34 -317 -7 -80 44 -123 127 -123 239 0 42 -6 68 -22 95 -22 37 -22 38 -29 13 -13 -44 -9 -185 6 -235 18 -62 54 -111 107 -146 55 -38 108 -50 203 -49 193 1 438 108 704 305 130 97 390 356 488 486 147 194 253 397 294 561 29 111 24 252 -10 322 -13 26 -22 50 -20 52 2 2 28 10 58 17 l54 14 -104 43 c-57 24 -128 54 -158 67 -69 31 -74 30 -57 -8z" style="fill: rgb(13, 110, 253);"/>
    <path d="M1498 2280 c-334 -57 -622 -306 -726 -630 -31 -97 -42 -172 -42 -291 0 -204 60 -386 182 -552 57 -77 182 -195 216 -204 32 -8 178 40 277 91 111 58 368 230 312 210 -30 -11 -66 5 -82 36 -23 45 -19 78 15 108 17 15 53 49 80 76 30 30 53 45 60 41 17 -10 5 -150 -16 -201 l-16 -37 67 59 c151 132 342 356 434 508 l34 57 -23 24 c-13 14 -51 80 -84 147 -50 99 -67 124 -96 140 -62 34 -176 7 -122 -29 33 -23 27 -49 -20 -84 -131 -95 -184 -84 -335 68 -55 55 -93 86 -93 76 0 -17 88 -188 134 -261 29 -46 46 -51 103 -27 110 46 111 -16 0 -148 -22 -26 -68 -68 -103 -93 -84 -60 -85 -67 -38 -231 5 -17 1 -25 -12 -29 -47 -17 -79 -71 -103 -172 -19 -76 -72 -132 -131 -139 -81 -9 -181 47 -223 126 -25 45 -27 55 -25 172 2 123 2 125 -35 214 -21 50 -45 109 -54 133 -18 51 -40 62 -118 62 -30 0 -66 5 -81 10 -24 10 -26 14 -20 51 11 70 66 197 118 276 155 231 403 374 678 390 180 10 376 -43 525 -145 80 -54 191 -163 232 -228 15 -24 31 -44 35 -44 3 0 9 18 13 40 6 37 3 45 -36 96 -122 159 -330 284 -542 328 -80 17 -256 20 -339 6z" style="fill: rgb(13, 110, 253);"/>
    <path d="M5096 2109 c-53 -13 -101 -51 -128 -102 -18 -34 -22 -58 -22 -132 0 -121 24 -168 154 -296 112 -109 133 -144 134 -215 1 -66 -21 -94 -75 -94 -53 0 -79 35 -79 106 l0 54 -70 0 -70 0 0 -64 c0 -151 76 -235 214 -236 32 0 77 5 99 12 91 27 145 130 134 255 -10 99 -36 144 -150 262 -131 134 -141 151 -142 224 0 50 4 62 24 78 13 10 35 19 50 19 46 0 65 -22 71 -81 l5 -54 70 0 70 0 -2 57 c-5 159 -125 245 -287 207z"/>
    <path d="M6359 2107 c-64 -18 -104 -50 -131 -105 -22 -46 -23 -56 -26 -350 -2 -192 1 -323 8 -356 21 -103 102 -165 216 -166 109 0 173 34 210 114 23 50 24 55 24 372 0 345 -4 380 -53 432 -53 58 -161 83 -248 59z m127 -152 l25 -25 -3 -316 c-3 -299 -4 -316 -22 -330 -30 -21 -89 -18 -112 7 -18 19 -19 42 -22 303 -2 154 0 296 3 314 13 70 83 95 131 47z"/>
    <path d="M3080 1625 l0 -485 70 0 70 0 1 343 0 342 92 -342 92 -343 78 0 77 0 0 485 0 485 -65 0 -65 0 0 -287 c0 -168 -4 -282 -9 -273 -5 8 -37 121 -71 250 -34 129 -66 252 -72 273 l-11 37 -94 0 -93 0 0 -485z"/>
    <path d="M3677 2104 c-4 -4 -7 -223 -7 -486 l0 -478 208 2 207 3 0 65 0 65 -132 3 -133 3 0 139 0 140 105 0 105 0 0 70 0 70 -105 0 -106 0 3 133 3 132 130 5 130 5 0 65 0 65 -201 3 c-110 1 -203 -1 -207 -4z"/>
    <path d="M4150 2098 c-1 -7 23 -226 52 -485 l52 -473 102 0 103 0 6 33 c7 44 45 416 45 446 0 13 3 22 6 18 6 -6 53 -424 54 -474 0 -22 3 -23 103 -23 l102 0 53 478 c29 262 53 480 52 485 0 4 -29 7 -64 7 l-63 0 -6 -42 c-3 -24 -20 -193 -38 -377 -18 -184 -36 -325 -40 -315 -4 10 -21 174 -39 364 -17 190 -33 351 -35 358 -3 8 -27 12 -74 12 l-70 0 -6 -52 c-8 -74 -65 -680 -65 -697 0 -8 -2 -12 -4 -10 -2 2 -20 164 -40 359 -20 195 -39 365 -42 378 -4 20 -10 22 -74 22 -49 0 -70 -4 -70 -12z"/>
    <path d="M5698 2104 c-5 -4 -8 -223 -8 -486 l0 -478 75 0 75 0 0 179 0 178 74 5 c108 7 163 37 199 107 26 52 27 61 27 197 0 136 -1 144 -28 195 -21 41 -38 58 -75 78 -42 21 -64 24 -190 29 -78 2 -145 1 -149 -4z m267 -159 c24 -23 25 -30 25 -145 0 -147 -8 -160 -95 -160 l-55 0 0 158 c0 87 3 162 7 165 3 4 26 7 50 7 33 0 50 -6 68 -25z"/>
    <path d="M6768 2104 c-5 -4 -8 -223 -8 -486 l0 -478 75 0 75 0 0 195 0 195 48 0 c94 0 112 -37 112 -232 0 -69 3 -133 6 -142 5 -13 22 -16 78 -16 l73 0 -3 78 c-2 42 -5 122 -7 177 -4 110 -27 174 -70 196 -12 6 -24 13 -26 15 -2 1 13 17 32 34 49 42 62 86 62 210 0 92 -3 111 -25 155 -20 40 -35 55 -74 74 -42 21 -65 25 -195 29 -80 2 -149 1 -153 -4z m277 -158 c18 -24 28 -118 20 -178 -10 -71 -38 -98 -105 -98 l-50 0 0 143 c0 79 3 147 8 151 13 14 114 0 127 -18z"/>
    <path d="M7277 2103 c-4 -3 -7 -35 -7 -70 l0 -63 80 0 80 0 0 -415 0 -415 80 0 80 0 0 415 0 415 75 0 75 0 0 70 0 70 -228 0 c-126 0 -232 -3 -235 -7z"/>
    <path d="M7875 2098 c-4 -11 -155 -940 -155 -954 0 -2 31 -4 69 -4 l69 0 12 85 12 85 93 0 c105 0 98 5 110 -85 11 -88 8 -85 91 -85 l76 0 -6 28 c-3 15 -37 227 -76 472 -39 245 -73 451 -75 458 -3 8 -35 12 -110 12 -75 0 -107 -4 -110 -12z m139 -409 c19 -129 31 -238 27 -242 -4 -4 -37 -7 -72 -5 -50 2 -64 6 -62 18 9 76 67 469 70 467 1 -2 18 -109 37 -238z"/>
    <path d="M8327 2103 c-4 -3 -7 -222 -7 -485 l0 -478 200 0 200 0 0 70 0 70 -125 0 -125 0 0 415 0 415 -68 0 c-38 0 -72 -3 -75 -7z"/>
    <path d="M2351 1707 c-11 -19 -21 -45 -20 -58 0 -18 7 -10 25 30 29 62 26 78 -5 28z"/>
    <path d="M2515 1493 c-205 -388 -602 -785 -988 -987 -96 -51 -97 -50 41 -66 329 -37 671 125 857 405 92 138 137 263 154 427 8 85 -2 257 -17 284 -4 8 -22 -16 -47 -63z" style="fill: rgb(13, 110, 253);"/>
    <path d="M3898 899 c-30 -17 -24 -80 12 -114 32 -30 41 -75 15 -75 -8 0 -15 6 -15 14 0 19 -19 31 -31 19 -6 -6 -6 -20 0 -36 9 -22 17 -27 45 -27 25 0 38 6 46 19 18 34 11 60 -25 100 -36 40 -45 71 -20 71 7 0 18 -7 23 -16 10 -19 32 -11 32 11 0 15 -37 45 -55 45 -5 0 -18 -5 -27 -11z"/>
    <path d="M4640 903 c-26 -10 -30 -25 -30 -113 0 -93 8 -110 50 -110 14 0 31 5 38 12 13 13 17 175 4 194 -9 15 -43 24 -62 17z m40 -114 c0 -71 -2 -80 -17 -77 -15 3 -18 16 -21 81 -3 72 -1 77 18 77 18 0 20 -6 20 -81z"/>
    <path d="M6703 900 c-25 -10 -25 -14 -23 -125 2 -78 10 -95 49 -95 44 0 51 16 51 111 0 79 -2 89 -22 103 -25 18 -25 18 -55 6z m42 -110 c0 -63 -3 -75 -17 -78 -16 -3 -18 6 -18 78 0 72 2 81 18 78 14 -3 17 -15 17 -78z"/>
    <path d="M3080 790 c0 -91 3 -110 15 -110 11 0 15 11 15 39 0 34 3 39 33 47 30 9 32 13 35 58 4 59 -9 76 -59 76 l-39 0 0 -110z m70 46 c0 -20 -6 -36 -14 -39 -20 -8 -26 2 -26 40 0 26 4 33 20 33 16 0 20 -7 20 -34z"/>
    <path d="M3350 802 c0 -106 7 -122 50 -122 43 0 50 16 50 122 0 79 -3 98 -15 98 -11 0 -15 -19 -17 -92 -3 -79 -6 -93 -20 -96 -16 -3 -18 6 -18 92 0 79 -3 96 -15 96 -12 0 -15 -18 -15 -98z"/>
    <path d="M3620 790 l0 -110 50 0 c38 0 50 4 50 15 0 10 -10 15 -30 15 l-30 0 0 95 c0 88 -1 95 -20 95 -19 0 -20 -7 -20 -110z"/>
    <path d="M4150 790 l0 -110 45 0 c33 0 45 4 45 15 0 10 -10 15 -30 15 -28 0 -30 3 -30 35 0 31 3 35 25 35 16 0 25 6 25 15 0 9 -9 15 -25 15 -21 0 -25 5 -25 30 0 27 3 30 30 30 20 0 30 5 30 15 0 11 -12 15 -45 15 l-45 0 0 -110z"/>
    <path d="M4880 790 c0 -103 1 -110 20 -110 17 0 20 7 20 45 0 41 2 45 25 45 16 0 25 6 25 15 0 9 -9 15 -25 15 -22 0 -25 4 -25 35 0 32 2 35 30 35 20 0 30 5 30 15 0 11 -12 15 -50 15 l-50 0 0 -110z"/>
    <path d="M5330 885 c0 -8 9 -15 20 -15 19 0 20 -7 20 -95 0 -78 3 -95 15 -95 12 0 15 17 15 95 0 88 1 95 20 95 11 0 20 7 20 15 0 12 -13 15 -55 15 -42 0 -55 -3 -55 -15z"/>
    <path d="M5600 790 c0 -103 1 -110 20 -110 17 0 20 7 20 51 0 43 3 50 18 47 13 -2 18 -15 20 -51 2 -33 7 -47 18 -47 11 0 14 21 14 110 0 91 -3 110 -15 110 -11 0 -15 -12 -15 -45 0 -38 -3 -45 -20 -45 -17 0 -20 7 -20 45 0 38 -3 45 -20 45 -19 0 -20 -7 -20 -110z"/>
    <path d="M5890 790 l0 -110 45 0 c33 0 45 4 45 15 0 10 -10 15 -30 15 -28 0 -30 3 -30 35 0 31 3 35 25 35 16 0 25 6 25 15 0 9 -9 15 -25 15 -21 0 -25 5 -25 30 0 27 3 30 30 30 20 0 30 5 30 15 0 11 -12 15 -45 15 l-45 0 0 -110z"/>
    <path d="M6346 858 c3 -24 8 -72 12 -108 7 -61 9 -65 32 -65 23 0 26 5 30 50 l6 50 8 -52 c7 -46 11 -53 31 -53 20 0 23 6 29 63 4 34 9 83 13 110 4 38 3 47 -9 47 -15 0 -26 -49 -29 -124 -1 -29 -2 -28 -10 9 -4 22 -8 57 -8 78 -1 29 -5 37 -20 37 -18 0 -29 -40 -32 -124 -1 -29 -2 -28 -10 9 -4 22 -8 57 -8 78 -1 30 -5 37 -21 37 -17 0 -19 -5 -14 -42z"/>
    <path d="M6950 790 c0 -103 1 -110 20 -110 17 0 20 7 20 45 0 33 4 45 14 45 10 0 16 -14 18 -42 2 -31 8 -44 21 -46 14 -3 17 4 17 40 0 24 -5 49 -12 56 -9 9 -9 15 0 24 7 7 12 26 12 43 0 42 -16 55 -67 55 l-43 0 0 -110z m68 48 c-4 -46 -28 -49 -28 -4 0 26 4 36 16 36 11 0 14 -8 12 -32z"/>
    <path d="M7230 790 l0 -110 45 0 c51 0 66 26 18 32 l-28 3 0 93 c0 81 -2 92 -17 92 -16 0 -18 -12 -18 -110z"/>
    <path d="M7490 789 l0 -110 42 3 c57 4 70 29 65 124 -2 39 -7 76 -11 82 -4 7 -27 12 -52 12 l-44 0 0 -111z m68 4 c-3 -65 -6 -78 -20 -81 -16 -3 -18 6 -18 77 0 75 2 81 20 81 19 0 21 -5 18 -77z"/>
  </g>
</svg>