<?xml version="1.0" encoding="utf-8"?>
<svg xmlns="http://www.w3.org/2000/svg" viewBox="0 0 500 500">
  <g transform="matrix(0.225676, 0, 0, -0.212952, -129.129471, 536.225647)" fill="#000000" stroke="none" style="">
    <path d="M2314 2308 c7 -18 37 -89 66 -158 29 -69 54 -127 56 -129 2 -2 8 18 15 43 6 26 16 45 22 43 19 -6 35 -71 36 -143 5 -463 -695 -1249 -1269 -1425 -98 -30 -268 -34 -317 -7 -80 44 -123 127 -123 239 0 42 -6 68 -22 95 -22 37 -22 38 -29 13 -13 -44 -9 -185 6 -235 18 -62 54 -111 107 -146 55 -38 108 -50 203 -49 193 1 438 108 704 305 130 97 390 356 488 486 147 194 253 397 294 561 29 111 24 252 -10 322 -13 26 -22 50 -20 52 2 2 28 10 58 17 l54 14 -104 43 c-57 24 -128 54 -158 67 -69 31 -74 30 -57 -8z" style="fill: rgb(13, 110, 253);"/>
    <path d="M1498 2280 c-334 -57 -622 -306 -726 -630 -31 -97 -42 -172 -42 -291 0 -204 60 -386 182 -552 57 -77 182 -195 216 -204 32 -8 178 40 277 91 111 58 368 230 312 210 -30 -11 -66 5 -82 36 -23 45 -19 78 15 108 17 15 53 49 80 76 30 30 53 45 60 41 17 -10 5 -150 -16 -201 l-16 -37 67 59 c151 132 342 356 434 508 l34 57 -23 24 c-13 14 -51 80 -84 147 -50 99 -67 124 -96 140 -62 34 -176 7 -122 -29 33 -23 27 -49 -20 -84 -131 -95 -184 -84 -335 68 -55 55 -93 86 -93 76 0 -17 88 -188 134 -261 29 -46 46 -51 103 -27 110 46 111 -16 0 -148 -22 -26 -68 -68 -103 -93 -84 -60 -85 -67 -38 -231 5 -17 1 -25 -12 -29 -47 -17 -79 -71 -103 -172 -19 -76 -72 -132 -131 -139 -81 -9 -181 47 -223 126 -25 45 -27 55 -25 172 2 123 2 125 -35 214 -21 50 -45 109 -54 133 -18 51 -40 62 -118 62 -30 0 -66 5 -81 10 -24 10 -26 14 -20 51 11 70 66 197 118 276 155 231 403 374 678 390 180 10 376 -43 525 -145 80 -54 191 -163 232 -228 15 -24 31 -44 35 -44 3 0 9 18 13 40 6 37 3 45 -36 96 -122 159 -330 284 -542 328 -80 17 -256 20 -339 6z" style="fill: rgb(13, 110, 253);"/>
    <path d="M2515 1493 c-205 -388 -602 -785 -988 -987 -96 -51 -97 -50 41 -66 329 -37 671 125 857 405 92 138 137 263 154 427 8 85 -2 257 -17 284 -4 8 -22 -16 -47 -63z" style="fill: rgb(13, 110, 253);"/>
  </g>
</svg>